<svg id="Capa_1" enable-background="new 0 0 512 512" height="512" viewBox="0 0 512 512" width="512" xmlns="http://www.w3.org/2000/svg"><g><g><g><g><g><g><path d="m501.849 56.535h-155.119c-5.606 0-10.151 4.545-10.151 10.151v40.194h26.045c9.181 0 16.65 7.469 16.65 16.65v137.272h131.28l1.445-1v-193.116c.001-5.607-4.544-10.151-10.15-10.151z" fill="#a79ba7"/></g><g><path d="m346.73 56.535c-5.606 0-10.151 4.545-10.151 10.151v39.194h26.045c7.162 0 13.314 4.273 16.082 10.403v-49.597c0-5.606 4.545-10.151 10.151-10.151z" fill="#918291"/></g><g><g><path d="m477.059 210.063h-31.868c-1.682 0-3.045-1.363-3.045-3.045v-115.806c0-1.682 1.363-3.045 3.045-3.045h31.868c1.682 0 3.045 1.363 3.045 3.045v115.806c0 1.682-1.363 3.045-3.045 3.045z" fill="#7a6d79"/></g></g><g><g><path d="m459.322 207.018v-115.806c0-1.682 1.364-3.045 3.045-3.045h-17.177c-1.682 0-3.045 1.363-3.045 3.045v115.806c0 1.682 1.364 3.045 3.045 3.045h17.177c-1.681 0-3.045-1.363-3.045-3.045z" fill="#685e68"/></g></g><g><g><path d="m477.059 210.321h-31.868c-1.682 0-3.045-1.363-3.045-3.045v-34.913h37.959v34.913c-.001 1.682-1.364 3.045-3.046 3.045z" fill="#e2dee2"/></g></g><g><g><path d="m442.145 172.363v34.656c.001 1.682 1.364 3.045 3.045 3.045h17.177c-1.682 0-3.045-1.364-3.045-3.045v-34.655h-17.177z" fill="#cbc4cc"/></g></g><g><g><path d="m477.059 217.563h-31.869c-5.814 0-10.545-4.73-10.545-10.545v-115.806c0-5.815 4.73-10.545 10.545-10.545h31.868c5.815 0 10.546 4.73 10.546 10.545v115.806c0 5.815-4.73 10.545-10.545 10.545zm-27.413-15h22.959v-106.896h-22.959z" fill="#918291"/></g></g></g><g><path d="m347.143 425.277v25.113c0 2.803 2.272 5.075 5.075 5.075h144.143c2.803 0 5.075-2.272 5.075-5.075v-25.113z" fill="#a79ba7"/></g><g><path d="m395.772 450.39v-24.112h-48.629v24.112c0 2.803 2.272 5.075 5.075 5.075h48.629c-2.803 0-5.075-2.272-5.075-5.075z" fill="#918291"/></g><g><path d="m379.274 259.803v79.705c0 7.72-6.28 14-14 14h-28.695v29.379l2.229 1h171.047l2.144-1v-123.084z" fill="#918291"/></g><g><path d="m365.274 354.507h-28.695v28.379h42.126v-36.73c-2.452 4.944-7.537 8.351-13.431 8.351z" fill="#7a6d79"/></g><g><g><path d="m501.849 426.277h-155.119c-5.606 0-10.151-4.545-10.151-10.151v-33.24h175.421v33.24c0 5.607-4.545 10.151-10.151 10.151z" fill="#e2dee2"/></g></g><g><g><path d="m378.706 416.127v-33.24h-42.126v33.24c0 5.606 4.545 10.151 10.151 10.151h42.126c-5.606-.001-10.151-4.545-10.151-10.151z" fill="#cbc4cc"/></g></g><g><g><circle cx="424.29" cy="309.013" fill="#fed402" r="19.515"/></g></g><g><g><path d="m421.707 309.013c0-7.74 4.517-14.408 11.049-17.563-2.564-1.238-5.428-1.953-8.466-1.953-10.778 0-19.516 8.737-19.516 19.515s8.738 19.515 19.516 19.515c3.038 0 5.902-.714 8.466-1.953-6.532-3.153-11.049-9.82-11.049-17.561z" fill="#fac600"/></g></g><g><g><path d="m424.29 336.029c-14.896 0-27.016-12.119-27.016-27.015s12.119-27.016 27.016-27.016c14.896 0 27.015 12.119 27.015 27.016 0 14.896-12.119 27.015-27.015 27.015zm0-39.031c-6.625 0-12.016 5.39-12.016 12.016 0 6.625 5.391 12.015 12.016 12.015s12.015-5.39 12.015-12.015c0-6.626-5.39-12.016-12.015-12.016z" fill="#7a6d79"/></g></g><g><g><g><g><circle cx="397.897" cy="353.956" fill="#26a6fe" r="7.5"/></g></g></g><g><g><g><circle cx="424.29" cy="353.956" fill="#fe6c55" r="7.5"/></g></g></g><g><g><g><circle cx="450.682" cy="353.956" fill="#00c27a" r="7.5"/></g></g></g></g></g></g><g><path d="m412.014 217.821c-4.143 0-7.5-3.358-7.5-7.5v-122.154c0-4.142 3.357-7.5 7.5-7.5s7.5 3.358 7.5 7.5v122.154c0 4.142-3.358 7.5-7.5 7.5z" fill="#7a6d79"/></g></g><g><path d="m153.981 353.507h72.313v67.729h-72.313z" fill="#918291"/><path d="m153.981 354.507h31.668v65.729h-31.668z" fill="#7a6d79"/><g><path d="m377.561 310.861h-374.908l-2.653 1v27.646c0 8.284 6.716 15 15 15h350.274c8.284 0 15-6.716 15-15v-27.646z" fill="#a79ba7"/></g><g><path d="m52.726 339.507v-27.646h-52.726v27.646c0 8.284 6.716 15 15 15h52.726c-8.285 0-15-6.715-15-15z" fill="#918291"/></g><g><g><path d="m291.677 455.465h-203.08c-2.803 0-5.075-2.272-5.075-5.075v-14.928c0-8.409 6.817-15.226 15.226-15.226h182.779c8.409 0 15.226 6.817 15.226 15.226v14.928c0 2.803-2.272 5.075-5.076 5.075z" fill="#a79ba7"/></g></g><g><g><path d="m125.758 450.39v-14.928c0-8.409 6.817-15.226 15.226-15.226h-42.236c-8.409 0-15.226 6.817-15.226 15.226v14.928c0 2.803 2.272 5.075 5.075 5.075h42.237c-2.804 0-5.076-2.272-5.076-5.075z" fill="#918291"/></g></g><g><g><path d="m372.774 304.361h-365.274v-180.83c0-5.606 4.545-10.151 10.151-10.151h344.973c5.606 0 10.151 4.545 10.151 10.151v180.83z" fill="#d8ecfe"/></g></g><path d="m50.146 120.88h-32.146c-1.657 0-3 1.343-3 3v169.981c0 1.657 1.343 3 3 3h31.784v-173.33c0-.919.133-1.805.362-2.651z" fill="#c4e2ff"/><g><g><path d="m267.284 304.361h-154.294v-151.393c0-2.803 2.272-5.075 5.075-5.075h144.143c2.803 0 5.075 2.272 5.075 5.075v151.393z" fill="#fff"/></g></g><path d="m159.256 147.893h-41.19c-2.803 0-5.075 2.272-5.075 5.075v143.893h41.19v-143.893c0-2.803 2.272-5.075 5.075-5.075z" fill="#f3f0f3"/><g><g><g><path d="m230.813 219.344h-81.351c-4.143 0-7.5-3.358-7.5-7.5s3.357-7.5 7.5-7.5h81.351c4.143 0 7.5 3.358 7.5 7.5s-3.358 7.5-7.5 7.5z" fill="#7a6d79"/></g></g><g><g><path d="m230.813 247.766h-81.351c-4.143 0-7.5-3.358-7.5-7.5s3.357-7.5 7.5-7.5h81.351c4.143 0 7.5 3.358 7.5 7.5s-3.358 7.5-7.5 7.5z" fill="#7a6d79"/></g></g><g><g><path d="m230.813 276.188h-81.351c-4.143 0-7.5-3.358-7.5-7.5s3.357-7.5 7.5-7.5h81.351c4.143 0 7.5 3.358 7.5 7.5s-3.358 7.5-7.5 7.5z" fill="#7a6d79"/></g></g></g><g><g><g><circle cx="163.745" cy="171.747" fill="#fac600" r="7.5"/></g></g><g><g><circle cx="240.892" cy="171.747" fill="#fe6c55" r="7.5"/></g></g><g><g><circle cx="139.383" cy="171.747" fill="#00c27a" r="7.5"/></g></g></g><g><g><g><g><path d="m75.94 266.658h-27.408c-1.682 0-3.045-1.363-3.045-3.045v-27.407c0-1.682 1.363-3.045 3.045-3.045h27.408c1.682 0 3.045 1.363 3.045 3.045v27.407c0 1.682-1.364 3.045-3.045 3.045z" fill="#00c27a"/></g></g><path d="m59.502 263.613v-27.407c0-1.682 1.364-3.045 3.045-3.045h-14.015c-1.682 0-3.045 1.363-3.045 3.045v27.407c0 1.682 1.363 3.045 3.045 3.045h14.015c-1.682 0-3.045-1.363-3.045-3.045z" fill="#09a755"/><g><g><path d="m75.94 199.662h-27.408c-1.682 0-3.045-1.363-3.045-3.045v-27.407c0-1.682 1.363-3.045 3.045-3.045h27.408c1.682 0 3.045 1.363 3.045 3.045v27.407c0 1.682-1.364 3.045-3.045 3.045z" fill="#fe6c55"/></g></g><path d="m59.502 196.617v-27.407c0-1.682 1.364-3.045 3.045-3.045h-14.015c-1.682 0-3.045 1.363-3.045 3.045v27.407c0 1.682 1.363 3.045 3.045 3.045h14.015c-1.682 0-3.045-1.363-3.045-3.045z" fill="#fd544d"/></g><g><g><g><path d="m331.742 266.658h-27.407c-1.682 0-3.045-1.363-3.045-3.045v-27.407c0-1.682 1.363-3.045 3.045-3.045h27.407c1.682 0 3.045 1.363 3.045 3.045v27.407c.001 1.682-1.363 3.045-3.045 3.045z" fill="#fac600"/></g></g><g><g><path d="m331.742 199.662h-27.407c-1.682 0-3.045-1.363-3.045-3.045v-27.407c0-1.682 1.363-3.045 3.045-3.045h27.407c1.682 0 3.045 1.363 3.045 3.045v27.407c.001 1.682-1.363 3.045-3.045 3.045z" fill="#26a6fe"/></g></g></g></g></g><g><path d="m380.274 311.861h-380.274v-188.33c0-9.748 7.903-17.651 17.651-17.651h344.973c9.748 0 17.65 7.902 17.65 17.65zm-362.274-15h344.274c1.657 0 3-1.343 3-3v-169.981c0-1.657-1.343-3-3-3h-344.274c-1.657 0-3 1.343-3 3v169.981c0 1.657 1.343 3 3 3z" fill="#7a6d79"/></g><path d="m315.305 263.613v-27.407c0-1.682 1.364-3.045 3.045-3.045h-14.015c-1.682 0-3.045 1.363-3.045 3.045v27.407c0 1.682 1.363 3.045 3.045 3.045h14.015c-1.682 0-3.045-1.363-3.045-3.045z" fill="#e8b800"/><path d="m315.305 196.617v-27.407c0-1.682 1.364-3.045 3.045-3.045h-14.015c-1.682 0-3.045 1.363-3.045 3.045v27.407c0 1.682 1.363 3.045 3.045 3.045h14.015c-1.682 0-3.045-1.363-3.045-3.045z" fill="#0593fc"/></g></svg>