<svg height="512" viewBox="0 0 512 512" width="512" xmlns="http://www.w3.org/2000/svg"><g id="Flat"><rect fill="#4db6e4" height="176" rx="16" width="272" x="120" y="24"/><path d="m120 136h272a0 0 0 0 1 0 0v48a16 16 0 0 1 -16 16h-240a16 16 0 0 1 -16-16v-48a0 0 0 0 1 0 0z" fill="#3ba5d3"/><g fill="#85ccd5"><path d="m168 160h16v16h-16z"/><path d="m200 160h16v16h-16z"/><path d="m232 160h16v16h-16z"/><path d="m264 160h16v16h-16z"/><path d="m296 160h16v16h-16z"/><path d="m328 160h16v16h-16z"/><path d="m192 288h-48v-16h40v-48h16v56a8 8 0 0 1 -8 8z"/><path d="m232 432h-88v-16h80v-192h16v200a8 8 0 0 1 -8 8z"/><path d="m368 288h-48a8 8 0 0 1 -8-8v-56h16v48h40z"/><path d="m368 432h-88a8 8 0 0 1 -8-8v-200h16v192h80z"/></g><path d="m144 48h16v16h-16z" fill="#5cc1ed"/><path d="m144 80h16v32h-16z" fill="#5cc1ed"/><rect fill="#348ed8" height="64" rx="8" width="96" x="24" y="248"/><path d="m96 344h-48l8-32h32z" fill="#d5d5d3"/><path d="m40 336h64v16h-64z" fill="#dfdfdd"/><path d="m92 328h-40l4-16h32z" fill="#cececc"/><rect fill="#348ed8" height="64" rx="8" width="96" x="392" y="240"/><path d="m464 336h-48l8-32h32z" fill="#d5d5d3"/><path d="m408 328h64v16h-64z" fill="#dfdfdd"/><path d="m460 320h-40l4-16h32z" fill="#cececc"/><rect fill="#348ed8" height="64" rx="8" width="96" x="24" y="392"/><path d="m96 488h-48l8-32h32z" fill="#d5d5d3"/><path d="m40 480h64v16h-64z" fill="#dfdfdd"/><path d="m92 472h-40l4-16h32z" fill="#cececc"/><rect fill="#348ed8" height="64" rx="8" width="96" x="392" y="392"/><path d="m464 488h-48l8-32h32z" fill="#d5d5d3"/><path d="m408 480h64v16h-64z" fill="#dfdfdd"/><path d="m460 472h-40l4-16h32z" fill="#cececc"/></g></svg>