<?xml version="1.0" encoding="iso-8859-1"?>
<!-- Generator: Adobe Illustrator 19.0.0, SVG Export Plug-In . SVG Version: 6.00 Build 0)  -->
<svg version="1.1" id="Capa_1" xmlns="http://www.w3.org/2000/svg" xmlns:xlink="http://www.w3.org/1999/xlink" x="0px" y="0px"
	 viewBox="0 0 512 512" style="enable-background:new 0 0 512 512;" xml:space="preserve">
<path style="fill:#AFE5FE;" d="M336.926,80.918c-96.69,0-175.074,78.383-175.074,175.074s78.383,175.074,175.074,175.074
	S512,352.682,512,255.992S433.617,80.918,336.926,80.918z M336.926,295.627c-21.89,0-39.635-17.745-39.635-39.635
	s17.745-39.635,39.635-39.635c21.89,0,39.635,17.745,39.635,39.635C376.562,277.882,358.816,295.627,336.926,295.627z"/>
<path style="fill:#76D8FD;" d="M439.897,114.402c21.053,28.899,33.484,64.48,33.484,102.971c0,96.69-78.383,175.074-175.074,175.074
	c-38.491,0-74.072-12.431-102.971-33.484c31.833,43.696,83.39,72.102,141.589,72.102c96.69,0,175.074-78.383,175.074-175.074
	C512,197.792,483.594,146.235,439.897,114.402z"/>
<path style="fill:#9EBECC;" d="M336.926,182.85c-40.396,0-73.143,32.747-73.143,73.143s32.747,73.143,73.143,73.143
	s73.143-32.747,73.143-73.143S377.322,182.85,336.926,182.85z M336.926,295.627c-21.89,0-39.635-17.745-39.635-39.635
	s17.745-39.635,39.635-39.635c21.89,0,39.635,17.745,39.635,39.635C376.562,277.882,358.816,295.627,336.926,295.627z"/>
<path style="fill:#A7AEEE;" d="M335.363,476.569H12.508C5.6,476.569,0,470.969,0,464.061V47.937c0-6.908,5.6-12.508,12.508-12.508
	h322.855c6.908,0,12.508,5.6,12.508,12.508v416.124C347.872,470.969,342.271,476.569,335.363,476.569z"/>
<path style="fill:#8C99E5;" d="M335.363,35.429h-41.265v390.506c0,6.908-5.6,12.509-12.508,12.509H0v25.618
	c0,6.908,5.6,12.508,12.508,12.508h322.855c6.908,0,12.508-5.6,12.508-12.508V47.937C347.872,41.029,342.271,35.429,335.363,35.429z
	"/>
<circle style="fill:#DFEAEF;" cx="172.16" cy="255.979" r="141.58"/>
<g>
	<path style="fill:#4A5A5E;" d="M160.966,277.954v-51.375c0-28.601-17.478-39.369-39.722-39.369
		c-22.421,0-39.546,10.769-39.546,39.369v51.374c0,28.6,17.125,39.369,39.546,39.369
		C143.488,317.323,160.966,306.553,160.966,277.954z M100.411,277.954v-51.375c0-15.536,7.592-22.775,20.832-22.775
		c13.064,0,21.009,7.238,21.009,22.775v51.374c0,15.536-7.944,22.774-21.009,22.774C108.003,300.727,100.411,293.49,100.411,277.954
		z"/>
	<path style="fill:#4A5A5E;" d="M217.286,300.727c-19.596,0-23.833-13.947-30.189-13.947c-4.414,0-8.121,5.826-8.121,10.063
		c0,8.827,16.065,20.832,39.016,20.832c23.304,0,40.252-12.358,40.252-37.604c0-46.961-57.377-35.133-57.377-61.261
		c0-11.123,9.181-16.065,22.068-16.065c15.007,0,19.597,6.708,24.363,6.708c5.296,0,7.768-6.532,7.768-10.063
		c0-9.709-20.656-12.711-32.131-12.711c-18.89,0-40.781,7.769-40.781,33.896c0,42.371,57.376,30.189,57.376,61.438
		C239.53,294.725,229.997,300.727,217.286,300.727z"/>
</g>
<g>
</g>
<g>
</g>
<g>
</g>
<g>
</g>
<g>
</g>
<g>
</g>
<g>
</g>
<g>
</g>
<g>
</g>
<g>
</g>
<g>
</g>
<g>
</g>
<g>
</g>
<g>
</g>
<g>
</g>
</svg>
